<svg xmlns="http://www.w3.org/2000/svg" xmlns:xlink="http://www.w3.org/1999/xlink"
  width="1315.6000000000001px" height="351px" viewBox="-10 -10 1012 270" version="1.1">
<![CDATA[
%80 0 DDS INIT 動作

%90 20 1ワード送信

 
@w_caption 80
@w_transient 2
INT_CLK ~_~_~ _~_~_~_~_~_~_~_~_~_~_ ~_~_~_~_~_~_~_~_~_~_~_~_~_~_~_ ~_~_~_~_~_~_~_~_~_~_
@w_hold 22
Q_SEQ =X33X32X31X30X29X28X27X26X X X X X X X X X X X X X X X X X X X X X X X3X2X1X0X33X32X
SCLK  ~_~_~_~_~_~_~_~_~_~_ ~_~_~_~_~_~_~_~_~_
FSYNC _ ~~ ________________________________~~_
SDATA =?==XD15=XD14=XD13=XD12=XD11=XD10=XD9=XD8=XD7=XD6=XD5=XD4=XD3=XD2=XD1=XD0=X=?X

%100 150 全送信シーケンス


@w_hold 10
INT_CLK =======:.....:============:.....:============:.....:=====~~~~~~
FSYNC ~~ _____:.....:_____~~_____:.....:_____~~_____:.....:_____~~~~~~
SDATA =?=XD15=XD14=X:.....:=XD1=XD0=X=?XD15=XD14=X:.......:=XD1=XD0=X=?XD15=XD14=X:.......:=XD1=XD0=X=?====
ADD_COUNT =0=============X1=============X2=============X3=====
CLK_EN ~~~~~~~~~~~~~~~~~~~~~~~~~~~~~~~~~~~~~~~~~~______
@grid on
]]>
<g>
<path d="M981,-5V255" stroke-width="0.3" stroke="#ccc" />
<path d="M969,-5V255" stroke-width="0.3" stroke="#ccc" />
<path d="M957,-5V255" stroke-width="0.3" stroke="#ccc" />
<path d="M945,-5V255" stroke-width="0.3" stroke="#ccc" />
<path d="M933,-5V255" stroke-width="0.3" stroke="#ccc" />
<path d="M921,-5V255" stroke-width="0.3" stroke="#ccc" />
<path d="M909,-5V255" stroke-width="0.3" stroke="#ccc" />
<path d="M897,-5V255" stroke-width="0.3" stroke="#ccc" />
<path d="M885,-5V255" stroke-width="0.3" stroke="#ccc" />
<path d="M873,-5V255" stroke-width="0.3" stroke="#ccc" />
<path d="M861,-5V255" stroke-width="0.3" stroke="#ccc" />
<path d="M849,-5V255" stroke-width="0.3" stroke="#ccc" />
<path d="M837,-5V255" stroke-width="0.3" stroke="#ccc" />
<path d="M825,-5V255" stroke-width="0.3" stroke="#ccc" />
<path d="M813,-5V255" stroke-width="0.3" stroke="#ccc" />
<path d="M801,-5V255" stroke-width="0.3" stroke="#ccc" />
<path d="M789,-5V255" stroke-width="0.3" stroke="#ccc" />
<path d="M777,-5V255" stroke-width="0.3" stroke="#ccc" />
<path d="M765,-5V255" stroke-width="0.3" stroke="#ccc" />
<path d="M753,-5V255" stroke-width="0.3" stroke="#ccc" />
<path d="M741,-5V255" stroke-width="0.3" stroke="#ccc" />
<path d="M729,-5V255" stroke-width="0.3" stroke="#ccc" />
<path d="M717,-5V255" stroke-width="0.3" stroke="#ccc" />
<path d="M705,-5V255" stroke-width="0.3" stroke="#ccc" />
<path d="M693,-5V255" stroke-width="0.3" stroke="#ccc" />
<path d="M681,-5V255" stroke-width="0.3" stroke="#ccc" />
<path d="M669,-5V255" stroke-width="0.3" stroke="#ccc" />
<path d="M657,-5V255" stroke-width="0.3" stroke="#ccc" />
<path d="M645,-5V255" stroke-width="0.3" stroke="#ccc" />
<path d="M633,-5V255" stroke-width="0.3" stroke="#ccc" />
<path d="M621,-5V255" stroke-width="0.3" stroke="#ccc" />
<path d="M609,-5V255" stroke-width="0.3" stroke="#ccc" />
<path d="M597,-5V255" stroke-width="0.3" stroke="#ccc" />
<path d="M585,-5V255" stroke-width="0.3" stroke="#ccc" />
<path d="M573,-5V255" stroke-width="0.3" stroke="#ccc" />
<path d="M561,-5V255" stroke-width="0.3" stroke="#ccc" />
<path d="M549,-5V255" stroke-width="0.3" stroke="#ccc" />
<path d="M537,-5V255" stroke-width="0.3" stroke="#ccc" />
<path d="M525,-5V255" stroke-width="0.3" stroke="#ccc" />
<path d="M513,-5V255" stroke-width="0.3" stroke="#ccc" />
<path d="M501,-5V255" stroke-width="0.3" stroke="#ccc" />
<path d="M489,-5V255" stroke-width="0.3" stroke="#ccc" />
<path d="M477,-5V255" stroke-width="0.3" stroke="#ccc" />
<path d="M465,-5V255" stroke-width="0.3" stroke="#ccc" />
<path d="M453,-5V255" stroke-width="0.3" stroke="#ccc" />
<path d="M441,-5V255" stroke-width="0.3" stroke="#ccc" />
<path d="M429,-5V255" stroke-width="0.3" stroke="#ccc" />
<path d="M417,-5V255" stroke-width="0.3" stroke="#ccc" />
<path d="M405,-5V255" stroke-width="0.3" stroke="#ccc" />
<path d="M393,-5V255" stroke-width="0.3" stroke="#ccc" />
<path d="M381,-5V255" stroke-width="0.3" stroke="#ccc" />
<path d="M369,-5V255" stroke-width="0.3" stroke="#ccc" />
<path d="M357,-5V255" stroke-width="0.3" stroke="#ccc" />
<path d="M345,-5V255" stroke-width="0.3" stroke="#ccc" />
<path d="M333,-5V255" stroke-width="0.3" stroke="#ccc" />
<path d="M321,-5V255" stroke-width="0.3" stroke="#ccc" />
<path d="M309,-5V255" stroke-width="0.3" stroke="#ccc" />
<path d="M297,-5V255" stroke-width="0.3" stroke="#ccc" />
<path d="M285,-5V255" stroke-width="0.3" stroke="#ccc" />
<path d="M273,-5V255" stroke-width="0.3" stroke="#ccc" />
<path d="M261,-5V255" stroke-width="0.3" stroke="#ccc" />
<path d="M249,-5V255" stroke-width="0.3" stroke="#ccc" />
<path d="M237,-5V255" stroke-width="0.3" stroke="#ccc" />
<path d="M225,-5V255" stroke-width="0.3" stroke="#ccc" />
<path d="M213,-5V255" stroke-width="0.3" stroke="#ccc" />
<path d="M201,-5V255" stroke-width="0.3" stroke="#ccc" />
<path d="M189,-5V255" stroke-width="0.3" stroke="#ccc" />
<path d="M177,-5V255" stroke-width="0.3" stroke="#ccc" />
<path d="M165,-5V255" stroke-width="0.3" stroke="#ccc" />
<path d="M153,-5V255" stroke-width="0.3" stroke="#ccc" />
<path d="M141,-5V255" stroke-width="0.3" stroke="#ccc" />
<path d="M129,-5V255" stroke-width="0.3" stroke="#ccc" />
<path d="M117,-5V255" stroke-width="0.3" stroke="#ccc" />
<path d="M105,-5V255" stroke-width="0.3" stroke="#ccc" />
<path d="M93,-5V255" stroke-width="0.3" stroke="#ccc" />
<path d="M81,-5V255" stroke-width="0.3" stroke="#ccc" />
<text x="80" y="0" text-anchor="middle" font-size="10" fill="black" font-family="Helvetica">DDS INIT 動作</text>
<text x="90" y="20" text-anchor="middle" font-size="10" fill="black" font-family="Helvetica">1ワード送信</text>
<text x="75" y="38.5" text-anchor="end" font-size="10" fill="black" font-family="Helvetica">INT_CLK</text>
<path stroke-linecap="round" stroke-width="0.6" stroke="black" fill="none" d="M82,30H92M92,30L94,40M94,40H104M104,40L106,30M106,30H116M116,30L118,40M118,40H128M128,40L130,30M130,30H140M140,30L142,40M142,40H152M152,40L154,30M154,30H164M164,30L166,40M166,40H176M176,40L178,30M178,30H188M188,30L190,40M190,40H200M200,40L202,30M202,30H212M212,30L214,40M214,40H224M224,40L226,30M226,30H236M236,30L238,40M238,40H248M248,40L250,30M250,30H260M260,30L262,40M262,40H272M272,40L274,30M274,30H284M284,30L286,40M286,40H296M296,40L298,30M298,30H308M308,30L310,40M310,40H320M320,40L322,30M322,30H332M332,30L334,40M334,40H344M344,40L346,30M346,30H356M356,30L358,40M358,40H368M368,40L370,30M370,30H380M380,30L382,40M382,40H392M392,40L394,30M394,30H404M404,30L406,40M406,40H416M416,40L418,30M418,30H428M428,30L430,40M430,40H440M440,40L442,30M442,30H452M452,30L454,40M454,40H464M464,40L466,30M466,30H476M476,30L478,40M478,40H488M488,40L490,30M490,30H500M500,30L502,40M502,40H512M512,40L514,30M514,30H524M524,30L526,40M526,40H536M536,40L538,30M538,30H548M548,30L550,40M550,40H560M560,40L562,30M562,30H572M572,30L574,40M574,40H584M584,40L586,30M586,30H596M596,30L598,40M598,40H608M608,40L610,30M610,30H620M620,30L622,40M622,40H632M632,40L634,30M634,30H644M644,30L646,40M646,40H656M656,40L658,30M658,30H668M668,30L670,40M670,40H680M680,40L682,30M682,30H692M692,30L694,40M694,40H704M704,40L706,30M706,30H716M716,30L718,40M718,40H728M728,40L730,30M730,30H740M740,30L742,40M742,40H752M752,40L754,30M754,30H764M764,30L766,40M766,40H776M776,40L778,30M778,30H788M788,30L790,40M790,40H800M800,40L802,30M802,30H812M812,30L814,40M814,40H824M824,40L826,30M826,30H836M836,30L838,40M838,40H848M848,40L850,30M850,30H860M860,30L862,40M862,40H872M872,40L874,30M874,30H884M884,30L886,40M886,40H896M896,40L898,30M898,30H908M908,30L910,40M910,40H920M920,40L922,30M922,30H932M932,30L934,40M934,40H944M944,40L946,30M946,30H956M956,30L958,40M958,40H968M968,40L970,30M970,30H980M980,30L982,40M982,40H992" />

<text x="75" y="58.5" text-anchor="end" font-size="10" fill="black" font-family="Helvetica">Q_SEQ</text>
<text x="117" y="58.5" text-anchor="middle" font-size="10" fill="black" font-family="Helvetica">33</text>
<text x="141" y="58.5" text-anchor="middle" font-size="10" fill="black" font-family="Helvetica">32</text>
<text x="165" y="58.5" text-anchor="middle" font-size="10" fill="black" font-family="Helvetica">31</text>
<text x="189" y="58.5" text-anchor="middle" font-size="10" fill="black" font-family="Helvetica">30</text>
<text x="213" y="58.5" text-anchor="middle" font-size="10" fill="black" font-family="Helvetica">29</text>
<text x="237" y="58.5" text-anchor="middle" font-size="10" fill="black" font-family="Helvetica">28</text>
<text x="261" y="58.5" text-anchor="middle" font-size="10" fill="black" font-family="Helvetica">27</text>
<text x="285" y="58.5" text-anchor="middle" font-size="10" fill="black" font-family="Helvetica">26</text>
<text x="837" y="58.5" text-anchor="middle" font-size="10" fill="black" font-family="Helvetica">3</text>
<text x="861" y="58.5" text-anchor="middle" font-size="10" fill="black" font-family="Helvetica">2</text>
<text x="885" y="58.5" text-anchor="middle" font-size="10" fill="black" font-family="Helvetica">1</text>
<text x="909" y="58.5" text-anchor="middle" font-size="10" fill="black" font-family="Helvetica">0</text>
<text x="933" y="58.5" text-anchor="middle" font-size="10" fill="black" font-family="Helvetica">33</text>
<text x="957" y="58.5" text-anchor="middle" font-size="10" fill="black" font-family="Helvetica">32</text>
<path stroke-linecap="round" stroke-width="0.6" stroke="black" fill="none" d="M82,60H104M82,50H104M104,50L106,60M104,60L106,50M106,60H128M106,50H128M128,50L130,60M128,60L130,50M130,60H152M130,50H152M152,50L154,60M152,60L154,50M154,60H176M154,50H176M176,50L178,60M176,60L178,50M178,60H200M178,50H200M200,50L202,60M200,60L202,50M202,60H224M202,50H224M224,50L226,60M224,60L226,50M226,60H248M226,50H248M248,50L250,60M248,60L250,50M250,60H272M250,50H272M272,50L274,60M272,60L274,50M274,60H296M274,50H296M296,50L298,60M296,60L298,50M298,60H320M298,50H320M320,50L322,60M320,60L322,50M322,60H344M322,50H344M344,50L346,60M344,60L346,50M346,60H368M346,50H368M368,50L370,60M368,60L370,50M370,60H392M370,50H392M392,50L394,60M392,60L394,50M394,60H416M394,50H416M416,50L418,60M416,60L418,50M418,60H440M418,50H440M440,50L442,60M440,60L442,50M442,60H464M442,50H464M464,50L466,60M464,60L466,50M466,60H488M466,50H488M488,50L490,60M488,60L490,50M490,60H512M490,50H512M512,50L514,60M512,60L514,50M514,60H536M514,50H536M536,50L538,60M536,60L538,50M538,60H560M538,50H560M560,50L562,60M560,60L562,50M562,60H584M562,50H584M584,50L586,60M584,60L586,50M586,60H608M586,50H608M608,50L610,60M608,60L610,50M610,60H632M610,50H632M632,50L634,60M632,60L634,50M634,60H656M634,50H656M656,50L658,60M656,60L658,50M658,60H680M658,50H680M680,50L682,60M680,60L682,50M682,60H704M682,50H704M704,50L706,60M704,60L706,50M706,60H728M706,50H728M728,50L730,60M728,60L730,50M730,60H752M730,50H752M752,50L754,60M752,60L754,50M754,60H776M754,50H776M776,50L778,60M776,60L778,50M778,60H800M778,50H800M800,50L802,60M800,60L802,50M802,60H824M802,50H824M824,50L826,60M824,60L826,50M826,60H848M826,50H848M848,50L850,60M848,60L850,50M850,60H872M850,50H872M872,50L874,60M872,60L874,50M874,60H896M874,50H896M896,50L898,60M896,60L898,50M898,60H920M898,50H920M920,50L922,60M920,60L922,50M922,60H944M922,50H944M944,50L946,60M944,60L946,50M946,60H968M946,50H968M968,50L970,60M968,60L970,50M970,60H992M970,50H992" />

<text x="75" y="78.5" text-anchor="end" font-size="10" fill="black" font-family="Helvetica">SCLK</text>
<path stroke-linecap="round" stroke-width="0.6" stroke="black" fill="none" d="M82,70H104M104,70L106,80M106,80H128M128,80L130,70M130,70H152M152,70L154,80M154,80H176M176,80L178,70M178,70H200M200,70L202,80M202,80H224M224,80L226,70M226,70H248M248,70L250,80M250,80H272M272,80L274,70M274,70H296M296,70L298,80M298,80H320M320,80L322,70M322,70H344M344,70L346,80M346,80H368M368,80L370,70M370,70H392M392,70L394,80M394,80H416M416,80L418,70M418,70H440M440,70L442,80M442,80H464M464,80L466,70M466,70H488M488,70L490,80M490,80H512M512,80L514,70M514,70H536M536,70L538,80M538,80H560M560,80L562,70M562,70H584M584,70L586,80M586,80H608M608,80L610,70M610,70H632M632,70L634,80M634,80H656M656,80L658,70M658,70H680M680,70L682,80M682,80H704M704,80L706,70M706,70H728M728,70L730,80M730,80H752M752,80L754,70M754,70H776M776,70L778,80M778,80H800M800,80L802,70M802,70H824M824,70L826,80M826,80H848M848,80L850,70M850,70H872M872,70L874,80M874,80H896M896,80L898,70M898,70H920M920,70L922,80M922,80H944M944,80L946,70M946,70H968M968,70L970,80M970,80H992" />

<text x="75" y="98.5" text-anchor="end" font-size="10" fill="black" font-family="Helvetica">FSYNC</text>
<path stroke-linecap="round" stroke-width="0.6" stroke="black" fill="none" d="M82,100H104M104,100L106,90M106,90H128M128,90H130M130,90H152M152,90L154,100M154,100H176M176,100H178M178,100H200M200,100H202M202,100H224M224,100H226M226,100H248M248,100H250M250,100H272M272,100H274M274,100H296M296,100H298M298,100H320M320,100H322M322,100H344M344,100H346M346,100H368M368,100H370M370,100H392M392,100H394M394,100H416M416,100H418M418,100H440M440,100H442M442,100H464M464,100H466M466,100H488M488,100H490M490,100H512M512,100H514M514,100H536M536,100H538M538,100H560M560,100H562M562,100H584M584,100H586M586,100H608M608,100H610M610,100H632M632,100H634M634,100H656M656,100H658M658,100H680M680,100H682M682,100H704M704,100H706M706,100H728M728,100H730M730,100H752M752,100H754M754,100H776M776,100H778M778,100H800M800,100H802M802,100H824M824,100H826M826,100H848M848,100H850M850,100H872M872,100H874M874,100H896M896,100H898M898,100H920M920,100L922,90M922,90H944M944,90H946M946,90H968M968,90L970,100M970,100H992" />

<text x="75" y="118.5" text-anchor="end" font-size="10" fill="black" font-family="Helvetica">SDATA</text>

<path stroke="none" d="M82,110H152L153,115L152,120H82Z" fill="#ccc"/><text x="117" y="118.5" text-anchor="middle" font-size="10" fill="black" font-family="Helvetica">?</text>
<text x="177" y="118.5" text-anchor="middle" font-size="10" fill="black" font-family="Helvetica">D15</text>
<text x="225" y="118.5" text-anchor="middle" font-size="10" fill="black" font-family="Helvetica">D14</text>
<text x="273" y="118.5" text-anchor="middle" font-size="10" fill="black" font-family="Helvetica">D13</text>
<text x="321" y="118.5" text-anchor="middle" font-size="10" fill="black" font-family="Helvetica">D12</text>
<text x="369" y="118.5" text-anchor="middle" font-size="10" fill="black" font-family="Helvetica">D11</text>
<text x="417" y="118.5" text-anchor="middle" font-size="10" fill="black" font-family="Helvetica">D10</text>
<text x="465" y="118.5" text-anchor="middle" font-size="10" fill="black" font-family="Helvetica">D9</text>
<text x="513" y="118.5" text-anchor="middle" font-size="10" fill="black" font-family="Helvetica">D8</text>
<text x="561" y="118.5" text-anchor="middle" font-size="10" fill="black" font-family="Helvetica">D7</text>
<text x="609" y="118.5" text-anchor="middle" font-size="10" fill="black" font-family="Helvetica">D6</text>
<text x="657" y="118.5" text-anchor="middle" font-size="10" fill="black" font-family="Helvetica">D5</text>
<text x="705" y="118.5" text-anchor="middle" font-size="10" fill="black" font-family="Helvetica">D4</text>
<text x="753" y="118.5" text-anchor="middle" font-size="10" fill="black" font-family="Helvetica">D3</text>
<text x="801" y="118.5" text-anchor="middle" font-size="10" fill="black" font-family="Helvetica">D2</text>
<text x="849" y="118.5" text-anchor="middle" font-size="10" fill="black" font-family="Helvetica">D1</text>
<text x="897" y="118.5" text-anchor="middle" font-size="10" fill="black" font-family="Helvetica">D0</text>

<path stroke="none" d="M922,110H968L969,115L968,120H922L921,115Z" fill="#ccc"/><text x="945" y="118.5" text-anchor="middle" font-size="10" fill="black" font-family="Helvetica">?</text>
<path stroke-linecap="round" stroke-width="0.6" stroke="black" fill="none" d="M82,120H104M82,110H104M104,110H106M104,120H106M106,120H128M106,110H128M128,110H130M128,120H130M130,120H152M130,110H152M152,110L154,120M152,120L154,110M154,120H176M154,110H176M176,110H178M176,120H178M178,120H200M178,110H200M200,110L202,120M200,120L202,110M202,120H224M202,110H224M224,110H226M224,120H226M226,120H248M226,110H248M248,110L250,120M248,120L250,110M250,120H272M250,110H272M272,110H274M272,120H274M274,120H296M274,110H296M296,110L298,120M296,120L298,110M298,120H320M298,110H320M320,110H322M320,120H322M322,120H344M322,110H344M344,110L346,120M344,120L346,110M346,120H368M346,110H368M368,110H370M368,120H370M370,120H392M370,110H392M392,110L394,120M392,120L394,110M394,120H416M394,110H416M416,110H418M416,120H418M418,120H440M418,110H440M440,110L442,120M440,120L442,110M442,120H464M442,110H464M464,110H466M464,120H466M466,120H488M466,110H488M488,110L490,120M488,120L490,110M490,120H512M490,110H512M512,110H514M512,120H514M514,120H536M514,110H536M536,110L538,120M536,120L538,110M538,120H560M538,110H560M560,110H562M560,120H562M562,120H584M562,110H584M584,110L586,120M584,120L586,110M586,120H608M586,110H608M608,110H610M608,120H610M610,120H632M610,110H632M632,110L634,120M632,120L634,110M634,120H656M634,110H656M656,110H658M656,120H658M658,120H680M658,110H680M680,110L682,120M680,120L682,110M682,120H704M682,110H704M704,110H706M704,120H706M706,120H728M706,110H728M728,110L730,120M728,120L730,110M730,120H752M730,110H752M752,110H754M752,120H754M754,120H776M754,110H776M776,110L778,120M776,120L778,110M778,120H800M778,110H800M800,110H802M800,120H802M802,120H824M802,110H824M824,110L826,120M824,120L826,110M826,120H848M826,110H848M848,110H850M848,120H850M850,120H872M850,110H872M872,110L874,120M872,120L874,110M874,120H896M874,110H896M896,110H898M896,120H898M898,120H920M898,110H920M920,110L922,120M920,120L922,110M922,120H944M922,110H944M944,110H946M944,120H946M946,120H968M946,110H968M968,110L970,120M968,120L970,110M970,120H992M970,110H992" />

<text x="100" y="150" text-anchor="middle" font-size="10" fill="black" font-family="Helvetica">全送信シーケンス</text>
<text x="75" y="168.5" text-anchor="end" font-size="10" fill="black" font-family="Helvetica">INT_CLK</text>
<text x="177" y="168.5" text-anchor="middle" font-size="10" fill="black" font-family="Helvetica">.....</text>
<text x="345" y="168.5" text-anchor="middle" font-size="10" fill="black" font-family="Helvetica">.....</text>
<text x="513" y="168.5" text-anchor="middle" font-size="10" fill="black" font-family="Helvetica">.....</text>
<path stroke-linecap="round" stroke-width="0.6" stroke="black" fill="none" d="M82,170H92M82,160H92M92,160H94M92,170H94M94,170H104M94,160H104M104,160H106M104,170H106M106,170H116M106,160H116M116,160H118M116,170H118M118,170H128M118,160H128M128,160H130M128,170H130M130,170H140M130,160H140M140,160H142M140,170H142M142,170H152M142,160H152M152,160H154M152,170H154M154,170H164M154,160H164M190,170H200M190,160H200M200,160H202M200,170H202M202,170H212M202,160H212M212,160H214M212,170H214M214,170H224M214,160H224M224,160H226M224,170H226M226,170H236M226,160H236M236,160H238M236,170H238M238,170H248M238,160H248M248,160H250M248,170H250M250,170H260M250,160H260M260,160H262M260,170H262M262,170H272M262,160H272M272,160H274M272,170H274M274,170H284M274,160H284M284,160H286M284,170H286M286,170H296M286,160H296M296,160H298M296,170H298M298,170H308M298,160H308M308,160H310M308,170H310M310,170H320M310,160H320M320,160H322M320,170H322M322,170H332M322,160H332M358,170H368M358,160H368M368,160H370M368,170H370M370,170H380M370,160H380M380,160H382M380,170H382M382,170H392M382,160H392M392,160H394M392,170H394M394,170H404M394,160H404M404,160H406M404,170H406M406,170H416M406,160H416M416,160H418M416,170H418M418,170H428M418,160H428M428,160H430M428,170H430M430,170H440M430,160H440M440,160H442M440,170H442M442,170H452M442,160H452M452,160H454M452,170H454M454,170H464M454,160H464M464,160H466M464,170H466M466,170H476M466,160H476M476,160H478M476,170H478M478,170H488M478,160H488M488,160H490M488,170H490M490,170H500M490,160H500M526,170H536M526,160H536M536,160H538M536,170H538M538,170H548M538,160H548M548,160H550M548,170H550M550,170H560M550,160H560M560,160H562M560,170H562M562,170H572M562,160H572M572,160H574M572,170H574M574,170H584M574,160H584M584,160H586M584,170L586,160M586,160H596M596,160H598M598,160H608M608,160H610M610,160H620M620,160H622M622,160H632M632,160H634M634,160H644M644,160H646M646,160H656" />

<text x="75" y="188.5" text-anchor="end" font-size="10" fill="black" font-family="Helvetica">FSYNC</text>
<text x="177" y="188.5" text-anchor="middle" font-size="10" fill="black" font-family="Helvetica">.....</text>
<text x="345" y="188.5" text-anchor="middle" font-size="10" fill="black" font-family="Helvetica">.....</text>
<text x="513" y="188.5" text-anchor="middle" font-size="10" fill="black" font-family="Helvetica">.....</text>
<path stroke-linecap="round" stroke-width="0.6" stroke="black" fill="none" d="M82,180H92M92,180H94M94,180H104M104,180L106,190M106,190H116M116,190H118M118,190H128M128,190H130M130,190H140M140,190H142M142,190H152M152,190H154M154,190H164M190,190H200M200,190H202M202,190H212M212,190H214M214,190H224M224,190H226M226,190H236M236,190H238M238,190H248M248,190L250,180M250,180H260M260,180H262M262,180H272M272,180L274,190M274,190H284M284,190H286M286,190H296M296,190H298M298,190H308M308,190H310M310,190H320M320,190H322M322,190H332M358,190H368M368,190H370M370,190H380M380,190H382M382,190H392M392,190H394M394,190H404M404,190H406M406,190H416M416,190L418,180M418,180H428M428,180H430M430,180H440M440,180L442,190M442,190H452M452,190H454M454,190H464M464,190H466M466,190H476M476,190H478M478,190H488M488,190H490M490,190H500M526,190H536M536,190H538M538,190H548M548,190H550M550,190H560M560,190H562M562,190H572M572,190H574M574,190H584M584,190L586,180M586,180H596M596,180H598M598,180H608M608,180H610M610,180H620M620,180H622M622,180H632M632,180H634M634,180H644M644,180H646M646,180H656" />

<text x="75" y="208.5" text-anchor="end" font-size="10" fill="black" font-family="Helvetica">SDATA</text>

<path stroke="none" d="M82,200H104L105,205L104,210H82Z" fill="#ccc"/><text x="93" y="208.5" text-anchor="middle" font-size="10" fill="black" font-family="Helvetica">?</text>
<text x="117" y="208.5" text-anchor="middle" font-size="10" fill="black" font-family="Helvetica">D15</text>
<text x="141" y="208.5" text-anchor="middle" font-size="10" fill="black" font-family="Helvetica">D14</text>
<text x="177" y="208.5" text-anchor="middle" font-size="10" fill="black" font-family="Helvetica">.....</text>
<text x="213" y="208.5" text-anchor="middle" font-size="10" fill="black" font-family="Helvetica">D1</text>
<text x="237" y="208.5" text-anchor="middle" font-size="10" fill="black" font-family="Helvetica">D0</text>

<path stroke="none" d="M250,200H272L273,205L272,210H250L249,205Z" fill="#ccc"/><text x="261" y="208.5" text-anchor="middle" font-size="10" fill="black" font-family="Helvetica">?</text>
<text x="285" y="208.5" text-anchor="middle" font-size="10" fill="black" font-family="Helvetica">D15</text>
<text x="309" y="208.5" text-anchor="middle" font-size="10" fill="black" font-family="Helvetica">D14</text>
<text x="345" y="208.5" text-anchor="middle" font-size="10" fill="black" font-family="Helvetica">.......</text>
<text x="381" y="208.5" text-anchor="middle" font-size="10" fill="black" font-family="Helvetica">D1</text>
<text x="405" y="208.5" text-anchor="middle" font-size="10" fill="black" font-family="Helvetica">D0</text>

<path stroke="none" d="M418,200H440L441,205L440,210H418L417,205Z" fill="#ccc"/><text x="429" y="208.5" text-anchor="middle" font-size="10" fill="black" font-family="Helvetica">?</text>
<text x="453" y="208.5" text-anchor="middle" font-size="10" fill="black" font-family="Helvetica">D15</text>
<text x="477" y="208.5" text-anchor="middle" font-size="10" fill="black" font-family="Helvetica">D14</text>
<text x="513" y="208.5" text-anchor="middle" font-size="10" fill="black" font-family="Helvetica">.......</text>
<text x="549" y="208.5" text-anchor="middle" font-size="10" fill="black" font-family="Helvetica">D1</text>
<text x="573" y="208.5" text-anchor="middle" font-size="10" fill="black" font-family="Helvetica">D0</text>

<path stroke="none" d="M586,200H656L656,210H586L585,205Z" fill="#ccc"/><text x="621" y="208.5" text-anchor="middle" font-size="10" fill="black" font-family="Helvetica">?</text>
<path stroke-linecap="round" stroke-width="0.6" stroke="black" fill="none" d="M82,210H92M82,200H92M92,200H94M92,210H94M94,210H104M94,200H104M104,200L106,210M104,210L106,200M106,210H116M106,200H116M116,200H118M116,210H118M118,210H128M118,200H128M128,200L130,210M128,210L130,200M130,210H140M130,200H140M140,200H142M140,210H142M142,210H152M142,200H152M152,200L154,210M152,210L154,200M154,210H164M154,200H164M190,210H200M190,200H200M200,200L202,210M200,210L202,200M202,210H212M202,200H212M212,200H214M212,210H214M214,210H224M214,200H224M224,200L226,210M224,210L226,200M226,210H236M226,200H236M236,200H238M236,210H238M238,210H248M238,200H248M248,200L250,210M248,210L250,200M250,210H260M250,200H260M260,200H262M260,210H262M262,210H272M262,200H272M272,200L274,210M272,210L274,200M274,210H284M274,200H284M284,200H286M284,210H286M286,210H296M286,200H296M296,200L298,210M296,210L298,200M298,210H308M298,200H308M308,200H310M308,210H310M310,210H320M310,200H320M320,200L322,210M320,210L322,200M322,210H332M322,200H332M358,210H368M358,200H368M368,200L370,210M368,210L370,200M370,210H380M370,200H380M380,200H382M380,210H382M382,210H392M382,200H392M392,200L394,210M392,210L394,200M394,210H404M394,200H404M404,200H406M404,210H406M406,210H416M406,200H416M416,200L418,210M416,210L418,200M418,210H428M418,200H428M428,200H430M428,210H430M430,210H440M430,200H440M440,200L442,210M440,210L442,200M442,210H452M442,200H452M452,200H454M452,210H454M454,210H464M454,200H464M464,200L466,210M464,210L466,200M466,210H476M466,200H476M476,200H478M476,210H478M478,210H488M478,200H488M488,200L490,210M488,210L490,200M490,210H500M490,200H500M526,210H536M526,200H536M536,200L538,210M536,210L538,200M538,210H548M538,200H548M548,200H550M548,210H550M550,210H560M550,200H560M560,200L562,210M560,210L562,200M562,210H572M562,200H572M572,200H574M572,210H574M574,210H584M574,200H584M584,200L586,210M584,210L586,200M586,210H596M586,200H596M596,200H598M596,210H598M598,210H608M598,200H608M608,200H610M608,210H610M610,210H620M610,200H620M620,200H622M620,210H622M622,210H632M622,200H632M632,200H634M632,210H634M634,210H644M634,200H644M644,200H646M644,210H646M646,210H656M646,200H656" />

<text x="75" y="228.5" text-anchor="end" font-size="10" fill="black" font-family="Helvetica">ADD_COUNT</text>
<text x="165" y="228.5" text-anchor="middle" font-size="10" fill="black" font-family="Helvetica">0</text>
<text x="333" y="228.5" text-anchor="middle" font-size="10" fill="black" font-family="Helvetica">1</text>
<text x="501" y="228.5" text-anchor="middle" font-size="10" fill="black" font-family="Helvetica">2</text>
<text x="621" y="228.5" text-anchor="middle" font-size="10" fill="black" font-family="Helvetica">3</text>
<path stroke-linecap="round" stroke-width="0.6" stroke="black" fill="none" d="M82,230H92M82,220H92M92,220H94M92,230H94M94,230H104M94,220H104M104,220H106M104,230H106M106,230H116M106,220H116M116,220H118M116,230H118M118,230H128M118,220H128M128,220H130M128,230H130M130,230H140M130,220H140M140,220H142M140,230H142M142,230H152M142,220H152M152,220H154M152,230H154M154,230H164M154,220H164M164,220H166M164,230H166M166,230H176M166,220H176M176,220H178M176,230H178M178,230H188M178,220H188M188,220H190M188,230H190M190,230H200M190,220H200M200,220H202M200,230H202M202,230H212M202,220H212M212,220H214M212,230H214M214,230H224M214,220H224M224,220H226M224,230H226M226,230H236M226,220H236M236,220H238M236,230H238M238,230H248M238,220H248M248,220L250,230M248,230L250,220M250,230H260M250,220H260M260,220H262M260,230H262M262,230H272M262,220H272M272,220H274M272,230H274M274,230H284M274,220H284M284,220H286M284,230H286M286,230H296M286,220H296M296,220H298M296,230H298M298,230H308M298,220H308M308,220H310M308,230H310M310,230H320M310,220H320M320,220H322M320,230H322M322,230H332M322,220H332M332,220H334M332,230H334M334,230H344M334,220H344M344,220H346M344,230H346M346,230H356M346,220H356M356,220H358M356,230H358M358,230H368M358,220H368M368,220H370M368,230H370M370,230H380M370,220H380M380,220H382M380,230H382M382,230H392M382,220H392M392,220H394M392,230H394M394,230H404M394,220H404M404,220H406M404,230H406M406,230H416M406,220H416M416,220L418,230M416,230L418,220M418,230H428M418,220H428M428,220H430M428,230H430M430,230H440M430,220H440M440,220H442M440,230H442M442,230H452M442,220H452M452,220H454M452,230H454M454,230H464M454,220H464M464,220H466M464,230H466M466,230H476M466,220H476M476,220H478M476,230H478M478,230H488M478,220H488M488,220H490M488,230H490M490,230H500M490,220H500M500,220H502M500,230H502M502,230H512M502,220H512M512,220H514M512,230H514M514,230H524M514,220H524M524,220H526M524,230H526M526,230H536M526,220H536M536,220H538M536,230H538M538,230H548M538,220H548M548,220H550M548,230H550M550,230H560M550,220H560M560,220H562M560,230H562M562,230H572M562,220H572M572,220H574M572,230H574M574,230H584M574,220H584M584,220L586,230M584,230L586,220M586,230H596M586,220H596M596,220H598M596,230H598M598,230H608M598,220H608M608,220H610M608,230H610M610,230H620M610,220H620M620,220H622M620,230H622M622,230H632M622,220H632M632,220H634M632,230H634M634,230H644M634,220H644M644,220H646M644,230H646M646,230H656M646,220H656" />

<text x="75" y="248.5" text-anchor="end" font-size="10" fill="black" font-family="Helvetica">CLK_EN</text>
<path stroke-linecap="round" stroke-width="0.6" stroke="black" fill="none" d="M82,240H92M92,240H94M94,240H104M104,240H106M106,240H116M116,240H118M118,240H128M128,240H130M130,240H140M140,240H142M142,240H152M152,240H154M154,240H164M164,240H166M166,240H176M176,240H178M178,240H188M188,240H190M190,240H200M200,240H202M202,240H212M212,240H214M214,240H224M224,240H226M226,240H236M236,240H238M238,240H248M248,240H250M250,240H260M260,240H262M262,240H272M272,240H274M274,240H284M284,240H286M286,240H296M296,240H298M298,240H308M308,240H310M310,240H320M320,240H322M322,240H332M332,240H334M334,240H344M344,240H346M346,240H356M356,240H358M358,240H368M368,240H370M370,240H380M380,240H382M382,240H392M392,240H394M394,240H404M404,240H406M406,240H416M416,240H418M418,240H428M428,240H430M430,240H440M440,240H442M442,240H452M452,240H454M454,240H464M464,240H466M466,240H476M476,240H478M478,240H488M488,240H490M490,240H500M500,240H502M502,240H512M512,240H514M514,240H524M524,240H526M526,240H536M536,240H538M538,240H548M548,240H550M550,240H560M560,240H562M562,240H572M572,240H574M574,240H584M584,240L586,250M586,250H596M596,250H598M598,250H608M608,250H610M610,250H620M620,250H622M622,250H632M632,250H634M634,250H644M644,250H646M646,250H656" />

</g>
</svg>
